<svg width="593" height="500" viewBox="0 0 593 500" fill="none" xmlns="http://www.w3.org/2000/svg">
<g clip-path="url(#clip0_198_4055)">
<path d="M420.615 409.352H303.003C300.365 409.352 298.226 407.179 298.226 404.499V247.996C298.226 245.316 300.365 243.143 303.003 243.143H420.615C423.254 243.143 425.392 245.316 425.392 247.996V404.499C425.392 407.179 423.253 409.352 420.615 409.352Z" fill="white"/>
<path d="M356.215 387.009C357.075 387.009 357.772 386.3 357.772 385.427C357.772 384.553 357.075 383.845 356.215 383.845C355.355 383.845 354.658 384.553 354.658 385.427C354.658 386.3 355.355 387.009 356.215 387.009Z" fill="#453CB6"/>
<path d="M309.867 383.817C310.186 383.817 310.501 383.911 310.781 384.088C311.68 384.657 311.986 385.925 311.464 386.915C310.998 387.798 308.884 389.437 308.247 389.918C308.218 389.941 308.188 389.945 308.169 389.945C308.149 389.945 308.12 389.941 308.091 389.918C307.454 389.437 305.339 387.798 304.874 386.915C304.352 385.925 304.658 384.657 305.557 384.088C305.836 383.911 306.152 383.817 306.471 383.817C307.032 383.817 307.557 384.094 307.911 384.575L308.17 384.928L308.429 384.575C308.781 384.094 309.306 383.817 309.867 383.817ZM309.867 383.49C309.221 383.49 308.59 383.806 308.168 384.38C307.747 383.806 307.116 383.49 306.47 383.49C306.102 383.49 305.728 383.593 305.386 383.809C304.344 384.468 303.988 385.928 304.589 387.068C305.079 387.998 307.15 389.614 307.898 390.18C307.979 390.241 308.074 390.271 308.169 390.271C308.264 390.271 308.36 390.241 308.44 390.18C309.188 389.615 311.259 387.998 311.749 387.068C312.35 385.927 311.993 384.468 310.952 383.809C310.609 383.593 310.236 383.49 309.867 383.49Z" fill="#453CB6"/>
<path d="M321.451 383.673C321.751 383.673 322.056 383.714 322.356 383.796C323.475 384.099 324.344 385.003 324.624 386.155C324.821 386.964 324.739 387.772 324.387 388.493C324.308 388.655 324.288 388.839 324.333 389.01L324.641 390.178L323.535 389.877C323.476 389.86 323.415 389.852 323.353 389.852C323.233 389.852 323.113 389.884 323.005 389.943C322.521 390.21 321.998 390.345 321.452 390.345C321.184 390.345 320.911 390.311 320.641 390.244C319.641 389.997 318.542 388.903 318.288 387.903C318.024 386.862 318.232 385.791 318.859 384.967C319.484 384.145 320.429 383.673 321.451 383.673ZM321.451 383.321C319.136 383.321 317.329 385.531 317.953 387.992C318.242 389.13 319.436 390.308 320.558 390.587C320.861 390.662 321.16 390.697 321.45 390.697C322.072 390.697 322.656 390.535 323.168 390.252C323.225 390.221 323.288 390.204 323.352 390.204C323.383 390.204 323.414 390.208 323.445 390.216L324.973 390.632C324.981 390.634 324.989 390.635 324.998 390.635C325.057 390.635 325.104 390.579 325.087 390.517L324.666 388.918C324.642 388.828 324.654 388.732 324.695 388.648C325.062 387.898 325.186 387.003 324.958 386.07C324.65 384.805 323.681 383.791 322.444 383.455C322.107 383.365 321.774 383.321 321.451 383.321Z" fill="#453CB6"/>
<path d="M305.068 398.871V398.585L306.143 397.409C306.269 397.271 306.373 397.151 306.454 397.05C306.536 396.947 306.596 396.85 306.635 396.76C306.676 396.669 306.696 396.574 306.696 396.474C306.696 396.36 306.668 396.261 306.613 396.177C306.559 396.093 306.485 396.029 306.391 395.983C306.296 395.937 306.19 395.915 306.073 395.915C305.948 395.915 305.839 395.941 305.745 395.993C305.653 396.043 305.582 396.115 305.531 396.207C305.481 396.299 305.456 396.407 305.456 396.531H305.081C305.081 396.341 305.125 396.173 305.213 396.029C305.301 395.885 305.421 395.773 305.572 395.692C305.725 395.612 305.896 395.571 306.085 395.571C306.276 395.571 306.445 395.612 306.592 395.692C306.74 395.773 306.855 395.881 306.939 396.018C307.023 396.155 307.065 396.307 307.065 396.474C307.065 396.594 307.043 396.711 306.999 396.825C306.957 396.939 306.883 397.065 306.777 397.205C306.672 397.344 306.526 397.514 306.34 397.714L305.609 398.496V398.521H307.122V398.871H305.068ZM307.778 398.871V398.585L308.853 397.409C308.979 397.271 309.083 397.151 309.164 397.05C309.246 396.947 309.306 396.85 309.345 396.76C309.386 396.669 309.406 396.574 309.406 396.474C309.406 396.36 309.378 396.261 309.323 396.177C309.269 396.093 309.195 396.029 309.101 395.983C309.006 395.937 308.9 395.915 308.783 395.915C308.658 395.915 308.549 395.941 308.455 395.993C308.363 396.043 308.292 396.115 308.241 396.207C308.191 396.299 308.166 396.407 308.166 396.531H307.791C307.791 396.341 307.835 396.173 307.923 396.029C308.011 395.885 308.131 395.773 308.282 395.692C308.435 395.612 308.606 395.571 308.795 395.571C308.986 395.571 309.155 395.612 309.302 395.692C309.45 395.773 309.565 395.881 309.649 396.018C309.733 396.155 309.775 396.307 309.775 396.474C309.775 396.594 309.753 396.711 309.709 396.825C309.667 396.939 309.593 397.065 309.487 397.205C309.382 397.344 309.236 397.514 309.05 397.714L308.319 398.496V398.521H309.832V398.871H307.778ZM311.804 398.871V395.616H312.198V398.521H313.712V398.871H311.804ZM314.271 398.871V396.43H314.646V398.871H314.271ZM314.462 396.023C314.389 396.023 314.326 395.998 314.273 395.948C314.221 395.898 314.195 395.838 314.195 395.768C314.195 395.699 314.221 395.639 314.273 395.589C314.326 395.539 314.389 395.514 314.462 395.514C314.535 395.514 314.597 395.539 314.649 395.589C314.702 395.639 314.729 395.699 314.729 395.768C314.729 395.838 314.702 395.898 314.649 395.948C314.597 395.998 314.535 396.023 314.462 396.023ZM315.683 397.981L315.677 397.517H315.753L316.821 396.43H317.285L316.147 397.58H316.115L315.683 397.981ZM315.333 398.871V395.616H315.708V398.871H315.333ZM316.885 398.871L315.931 397.663L316.198 397.402L317.361 398.871H316.885ZM318.691 398.922C318.456 398.922 318.253 398.87 318.082 398.766C317.913 398.661 317.782 398.515 317.69 398.328C317.599 398.139 317.553 397.92 317.553 397.669C317.553 397.419 317.599 397.199 317.69 397.008C317.782 396.816 317.91 396.667 318.074 396.56C318.24 396.452 318.432 396.398 318.653 396.398C318.78 396.398 318.906 396.419 319.03 396.461C319.154 396.504 319.266 396.573 319.368 396.668C319.47 396.762 319.551 396.887 319.611 397.043C319.672 397.199 319.702 397.391 319.702 397.619V397.778H317.82V397.453H319.32C319.32 397.316 319.293 397.193 319.238 397.085C319.184 396.976 319.106 396.891 319.006 396.829C318.906 396.766 318.788 396.735 318.653 396.735C318.503 396.735 318.374 396.772 318.265 396.846C318.157 396.919 318.074 397.015 318.015 397.132C317.957 397.25 317.928 397.376 317.928 397.511V397.727C317.928 397.911 317.96 398.067 318.023 398.196C318.088 398.323 318.178 398.42 318.292 398.486C318.406 398.552 318.539 398.585 318.691 398.585C318.79 398.585 318.879 398.571 318.958 398.544C319.039 398.515 319.108 398.473 319.166 398.417C319.225 398.359 319.27 398.288 319.301 398.204L319.664 398.305C319.626 398.428 319.561 398.536 319.471 398.629C319.381 398.722 319.27 398.794 319.138 398.846C319.005 398.897 318.856 398.922 318.691 398.922ZM322.002 396.976L321.665 397.072C321.644 397.016 321.612 396.961 321.571 396.908C321.531 396.854 321.476 396.81 321.406 396.775C321.336 396.74 321.246 396.722 321.137 396.722C320.988 396.722 320.863 396.757 320.764 396.825C320.665 396.893 320.616 396.98 320.616 397.085C320.616 397.178 320.65 397.251 320.718 397.305C320.785 397.36 320.891 397.405 321.035 397.441L321.398 397.53C321.616 397.583 321.779 397.664 321.886 397.773C321.993 397.881 322.046 398.02 322.046 398.191C322.046 398.331 322.006 398.456 321.926 398.566C321.846 398.676 321.735 398.763 321.592 398.827C321.449 398.89 321.282 398.922 321.093 398.922C320.844 398.922 320.638 398.868 320.474 398.76C320.311 398.652 320.208 398.494 320.164 398.286L320.52 398.197C320.554 398.329 320.618 398.427 320.713 398.493C320.808 398.559 320.933 398.591 321.086 398.591C321.261 398.591 321.4 398.554 321.503 398.48C321.607 398.405 321.659 398.315 321.659 398.21C321.659 398.125 321.629 398.054 321.57 397.997C321.51 397.939 321.419 397.895 321.296 397.867L320.889 397.771C320.666 397.718 320.501 397.636 320.396 397.525C320.293 397.413 320.241 397.272 320.241 397.104C320.241 396.966 320.279 396.844 320.357 396.738C320.435 396.632 320.542 396.549 320.676 396.489C320.812 396.428 320.966 396.398 321.137 396.398C321.379 396.398 321.568 396.451 321.706 396.557C321.845 396.663 321.944 396.803 322.002 396.976Z" fill="#453CB6"/>
<path d="M334.56 390.328L338.47 383.646H330.969L333.69 386.313L334.56 390.328ZM334.115 386.317L337.545 384.402L334.739 389.197L334.115 386.317ZM337.285 384.067L333.914 385.948L331.995 384.067H337.285Z" fill="#453CB6"/>
<path d="M418.918 390.85C418.854 390.85 418.791 390.826 418.741 390.778L416.128 388.298L413.515 390.778C413.436 390.853 413.323 390.871 413.227 390.824C413.131 390.776 413.069 390.672 413.069 390.558V383.246C413.069 383.086 413.189 382.955 413.338 382.955H418.919C419.067 382.955 419.188 383.086 419.188 383.246V390.558C419.188 390.673 419.126 390.777 419.03 390.824C418.993 390.842 418.956 390.85 418.918 390.85ZM416.127 387.788C416.19 387.788 416.253 387.812 416.304 387.86L418.648 389.916V383.539H413.605V389.916L415.949 387.86C416.001 387.812 416.064 387.788 416.127 387.788Z" fill="#453CB6"/>
<path d="M425.393 263.76H298.226V379.547H425.393V263.76Z" fill="#AAE5E3"/>
<path d="M387.347 327.781C389.08 319.97 384.253 312.21 376.565 310.449C368.877 308.689 361.24 313.593 359.507 321.404C357.774 329.215 362.601 336.975 370.289 338.736C377.977 340.496 385.614 335.592 387.347 327.781Z" fill="#FBB040"/>
<mask id="mask0_198_4055" style="mask-type:luminance" maskUnits="userSpaceOnUse" x="298" y="263" width="128" height="117">
<path d="M425.393 263.76H298.226V379.547H425.393V263.76Z" fill="white"/>
</mask>
<g mask="url(#mask0_198_4055)">
<path d="M368.152 335.071L395.909 306.869L441.594 353.286H368.152V335.071Z" fill="#00A79D"/>
</g>
<mask id="mask1_198_4055" style="mask-type:luminance" maskUnits="userSpaceOnUse" x="298" y="263" width="128" height="117">
<path d="M425.393 263.76H298.226V379.547H425.393V263.76Z" fill="white"/>
</mask>
<g mask="url(#mask1_198_4055)">
<path d="M396.809 310.252L399.353 317.615L401.554 324.449L412.554 331.692L415.945 339.264L427.337 344.693L436.035 350.386L396.809 310.252Z" fill="white"/>
</g>
<mask id="mask2_198_4055" style="mask-type:luminance" maskUnits="userSpaceOnUse" x="298" y="263" width="128" height="117">
<path d="M425.393 263.76H298.226V379.547H425.393V263.76Z" fill="white"/>
</mask>
<g mask="url(#mask2_198_4055)">
<path d="M298.226 328.459L336.058 290.022L398.326 353.286H298.226V328.459Z" fill="#3FC9BC"/>
<path d="M425.393 353.286H298.226V379.548H425.393V353.286Z" fill="#6FEFFD"/>
<path d="M337.285 294.633L335.168 306.107L340.752 304.668L343.752 313.981L358.744 323.854L344.835 333.455L363.366 334.174L378.893 341.574L390.749 349.335L337.285 294.633Z" fill="white"/>
</g>
<mask id="mask3_198_4055" style="mask-type:luminance" maskUnits="userSpaceOnUse" x="298" y="263" width="128" height="117">
<path d="M425.393 263.76H298.226V379.547H425.393V263.76Z" fill="white"/>
</mask>
<g mask="url(#mask3_198_4055)">
<path d="M322.012 379.547H314.731L318.372 361.255L322.012 342.962L325.653 361.255L329.294 379.547H322.012Z" fill="#029183"/>
<path d="M298.122 379.547H290.839L294.48 361.255L298.122 342.962L301.762 361.255L305.403 379.547H298.122Z" fill="#029183"/>
<path d="M308.015 379.547H298.122L303.068 354.692L308.015 329.838L312.962 354.692L317.909 379.547H308.015Z" fill="#00A79D"/>
<path d="M332.913 379.547H324.721L328.817 358.969L332.913 338.39L337.009 358.969L341.105 379.547H332.913Z" fill="#00A79D"/>
<path d="M343.313 379.547H338.366L340.839 367.12L343.313 354.692L345.786 367.12L348.26 379.547H343.313Z" fill="#029183"/>
<path d="M350.526 379.547H344.66L347.593 364.811L350.526 350.073L353.459 364.811L356.392 379.547H350.526Z" fill="#00A79D"/>
<path d="M357.763 379.547H353.41L355.586 368.611L357.763 357.676L359.94 368.611L362.116 379.547H357.763Z" fill="#029183"/>
<path d="M363.061 379.547H359.16L361.11 369.749L363.061 359.949L365.011 369.749L366.961 379.547H363.061Z" fill="#00A79D"/>
</g>
<mask id="mask4_198_4055" style="mask-type:luminance" maskUnits="userSpaceOnUse" x="298" y="263" width="128" height="117">
<path d="M425.393 263.76H298.226V379.547H425.393V263.76Z" fill="white"/>
</mask>
<g mask="url(#mask4_198_4055)">
<path d="M425.433 379.547H432.715L429.074 361.255L425.433 342.962L421.792 361.255L418.151 379.547H425.433Z" fill="#029183"/>
<path d="M414.095 379.547H421.849L417.972 360.067L414.095 340.587L410.217 360.067L406.34 379.547H414.095Z" fill="#00A79D"/>
<path d="M404.132 379.547H409.079L406.606 367.12L404.132 354.692L401.659 367.12L399.185 379.547H404.132Z" fill="#029183"/>
<path d="M397.551 379.547H404.049L400.8 363.223L397.551 346.899L394.302 363.223L391.053 379.547H397.551Z" fill="#00A79D"/>
<path d="M389.682 379.547H394.035L391.859 368.611L389.682 357.676L387.506 368.611L385.329 379.547H389.682Z" fill="#029183"/>
<path d="M384.385 379.547H388.285L386.335 369.749L384.385 359.949L382.434 369.749L380.484 379.547H384.385Z" fill="#00A79D"/>
</g>
<path d="M363.366 385.426C363.366 386.3 362.669 387.008 361.809 387.008C360.949 387.008 360.252 386.3 360.252 385.426C360.252 384.552 360.949 383.844 361.809 383.844C362.669 383.844 363.366 384.552 363.366 385.426Z" fill="#DEDCEF"/>
<path d="M367.403 387.008C368.263 387.008 368.96 386.3 368.96 385.426C368.96 384.552 368.263 383.844 367.403 383.844C366.543 383.844 365.846 384.552 365.846 385.426C365.846 386.3 366.543 387.008 367.403 387.008Z" fill="#DEDCEF"/>
<path d="M326.934 270.781C331.152 264.975 329.94 256.794 324.225 252.508C318.511 248.222 310.459 249.454 306.241 255.26C302.022 261.066 303.235 269.247 308.949 273.533C314.663 277.818 322.715 276.586 326.934 270.781Z" fill="#453CB6"/>
<path d="M322.067 262.189C322.067 265.259 319.617 267.748 316.595 267.748C313.573 267.748 311.123 265.259 311.123 262.189C311.123 259.118 313.573 256.629 316.595 256.629C319.618 256.629 322.067 259.118 322.067 262.189Z" fill="white"/>
<path d="M326.525 269.322C325.402 267.888 323.434 267.531 321.855 268.417C320.296 269.292 318.503 269.79 316.596 269.79C314.688 269.79 312.896 269.292 311.336 268.417C309.757 267.531 307.789 267.888 306.666 269.322L305.915 270.281C308.224 273.771 312.145 276.068 316.596 276.068C321.046 276.068 324.967 273.771 327.277 270.281L326.525 269.322Z" fill="white"/>
<path d="M388.75 253.43V249.816H389.188V253.042H390.867V253.43H388.75ZM392.59 253.486C392.345 253.486 392.13 253.428 391.946 253.312C391.762 253.195 391.618 253.032 391.515 252.823C391.413 252.614 391.361 252.369 391.361 252.089C391.361 251.807 391.413 251.56 391.515 251.35C391.618 251.139 391.762 250.975 391.946 250.859C392.13 250.743 392.345 250.684 392.59 250.684C392.834 250.684 393.048 250.743 393.232 250.859C393.417 250.975 393.56 251.139 393.662 251.35C393.766 251.56 393.818 251.807 393.818 252.089C393.818 252.369 393.766 252.614 393.662 252.823C393.56 253.032 393.417 253.195 393.232 253.312C393.048 253.428 392.834 253.486 392.59 253.486ZM392.59 253.112C392.775 253.112 392.928 253.065 393.048 252.969C393.168 252.874 393.257 252.749 393.315 252.594C393.372 252.438 393.401 252.27 393.401 252.089C393.401 251.908 393.372 251.739 393.315 251.582C393.257 251.426 393.168 251.3 393.048 251.203C392.928 251.107 392.775 251.058 392.59 251.058C392.404 251.058 392.251 251.107 392.131 251.203C392.011 251.3 391.922 251.426 391.864 251.582C391.807 251.739 391.778 251.908 391.778 252.089C391.778 252.27 391.807 252.438 391.864 252.594C391.922 252.749 392.011 252.874 392.131 252.969C392.251 253.065 392.404 253.112 392.59 253.112ZM394.453 253.43V250.72H394.856V251.129H394.884C394.933 250.995 395.023 250.886 395.152 250.803C395.281 250.719 395.427 250.677 395.59 250.677C395.62 250.677 395.659 250.678 395.704 250.679C395.75 250.68 395.785 250.682 395.808 250.684V251.108C395.794 251.104 395.762 251.099 395.711 251.092C395.662 251.084 395.61 251.08 395.554 251.08C395.423 251.08 395.305 251.107 395.201 251.163C395.099 251.217 395.018 251.292 394.958 251.388C394.899 251.484 394.87 251.592 394.87 251.715V253.43H394.453ZM397.356 253.486C397.095 253.486 396.87 253.429 396.68 253.313C396.492 253.197 396.347 253.035 396.244 252.826C396.143 252.617 396.093 252.374 396.093 252.096C396.093 251.818 396.143 251.574 396.244 251.362C396.347 251.149 396.489 250.983 396.671 250.864C396.855 250.744 397.069 250.684 397.314 250.684C397.455 250.684 397.594 250.708 397.732 250.755C397.869 250.802 397.995 250.878 398.108 250.984C398.221 251.089 398.311 251.228 398.378 251.401C398.445 251.574 398.478 251.787 398.478 252.039V252.216H396.389V251.856H398.055C398.055 251.703 398.024 251.567 397.963 251.447C397.903 251.327 397.817 251.232 397.705 251.163C397.595 251.093 397.464 251.058 397.314 251.058C397.148 251.058 397.004 251.1 396.883 251.182C396.763 251.263 396.671 251.369 396.606 251.5C396.541 251.63 396.509 251.77 396.509 251.919V252.159C396.509 252.364 396.544 252.538 396.615 252.68C396.687 252.821 396.786 252.929 396.913 253.003C397.04 253.076 397.188 253.112 397.356 253.112C397.465 253.112 397.564 253.097 397.652 253.066C397.742 253.035 397.819 252.988 397.884 252.925C397.948 252.862 397.998 252.783 398.034 252.689L398.436 252.802C398.394 252.938 398.322 253.058 398.222 253.162C398.122 253.264 397.999 253.344 397.852 253.402C397.705 253.458 397.539 253.486 397.356 253.486ZM399.112 253.43V250.72H399.514V251.143H399.549C399.606 250.998 399.697 250.886 399.823 250.806C399.949 250.725 400.1 250.684 400.276 250.684C400.455 250.684 400.604 250.725 400.723 250.806C400.843 250.886 400.936 250.998 401.003 251.143H401.031C401.101 251.003 401.205 250.892 401.344 250.81C401.483 250.726 401.649 250.684 401.843 250.684C402.085 250.684 402.284 250.76 402.438 250.912C402.592 251.063 402.669 251.297 402.669 251.616V253.43H402.253V251.616C402.253 251.416 402.198 251.273 402.088 251.187C401.979 251.101 401.85 251.058 401.702 251.058C401.511 251.058 401.364 251.116 401.259 251.231C401.154 251.345 401.102 251.49 401.102 251.665V253.43H400.679V251.574C400.679 251.42 400.629 251.295 400.529 251.201C400.429 251.106 400.3 251.058 400.142 251.058C400.034 251.058 399.933 251.087 399.839 251.145C399.746 251.203 399.67 251.283 399.613 251.385C399.556 251.486 399.528 251.603 399.528 251.736V253.43H399.112ZM405.322 249.816V253.43H404.884V249.816H405.322ZM406.143 254.446V250.72H406.545V251.15H406.595C406.625 251.103 406.668 251.043 406.722 250.97C406.777 250.896 406.856 250.83 406.958 250.773C407.062 250.714 407.202 250.684 407.378 250.684C407.606 250.684 407.807 250.741 407.981 250.855C408.156 250.97 408.291 251.131 408.389 251.341C408.487 251.55 408.536 251.797 408.536 252.082C408.536 252.369 408.487 252.618 408.389 252.828C408.291 253.038 408.156 253.2 407.983 253.315C407.81 253.429 407.611 253.486 407.385 253.486C407.211 253.486 407.072 253.458 406.967 253.4C406.862 253.341 406.782 253.275 406.725 253.201C406.669 253.125 406.625 253.063 406.595 253.014H406.559V254.446H406.143ZM406.552 252.075C406.552 252.279 406.582 252.46 406.642 252.616C406.702 252.772 406.79 252.894 406.905 252.982C407.02 253.069 407.162 253.112 407.329 253.112C407.503 253.112 407.648 253.066 407.764 252.975C407.882 252.882 407.97 252.757 408.029 252.601C408.089 252.443 408.119 252.268 408.119 252.075C408.119 251.884 408.09 251.712 408.031 251.56C407.973 251.405 407.886 251.284 407.768 251.194C407.652 251.104 407.505 251.058 407.329 251.058C407.159 251.058 407.017 251.101 406.902 251.187C406.786 251.272 406.699 251.391 406.64 251.544C406.582 251.695 406.552 251.872 406.552 252.075ZM411.091 251.327L410.717 251.432C410.693 251.37 410.658 251.31 410.612 251.251C410.568 251.191 410.507 251.141 410.429 251.103C410.351 251.064 410.252 251.044 410.131 251.044C409.965 251.044 409.827 251.083 409.716 251.159C409.607 251.234 409.552 251.33 409.552 251.447C409.552 251.55 409.59 251.632 409.665 251.692C409.74 251.752 409.858 251.802 410.018 251.842L410.42 251.941C410.662 251.999 410.843 252.089 410.962 252.211C411.081 252.331 411.14 252.485 411.14 252.675C411.14 252.83 411.095 252.969 411.006 253.091C410.918 253.213 410.794 253.31 410.635 253.381C410.477 253.451 410.292 253.486 410.081 253.486C409.805 253.486 409.576 253.426 409.395 253.306C409.214 253.186 409.099 253.011 409.051 252.781L409.446 252.682C409.484 252.828 409.555 252.937 409.66 253.01C409.765 253.083 409.904 253.119 410.074 253.119C410.268 253.119 410.422 253.078 410.537 252.996C410.652 252.912 410.709 252.812 410.709 252.696C410.709 252.602 410.677 252.523 410.611 252.459C410.545 252.395 410.444 252.347 410.307 252.315L409.855 252.209C409.607 252.15 409.425 252.059 409.308 251.935C409.193 251.811 409.135 251.655 409.135 251.468C409.135 251.315 409.178 251.18 409.264 251.062C409.351 250.944 409.47 250.852 409.619 250.785C409.77 250.718 409.94 250.684 410.131 250.684C410.399 250.684 410.609 250.743 410.762 250.861C410.916 250.978 411.026 251.134 411.091 251.327ZM413.475 252.322V250.72H413.891V253.43H413.475V252.971H413.447C413.383 253.109 413.284 253.226 413.15 253.322C413.016 253.418 412.847 253.465 412.642 253.465C412.473 253.465 412.322 253.428 412.19 253.354C412.059 253.279 411.955 253.166 411.88 253.015C411.804 252.864 411.767 252.672 411.767 252.442V250.72H412.183V252.414C412.183 252.611 412.239 252.769 412.349 252.886C412.461 253.004 412.603 253.063 412.776 253.063C412.88 253.063 412.985 253.036 413.092 252.984C413.2 252.931 413.291 252.849 413.364 252.74C413.438 252.631 413.475 252.491 413.475 252.322ZM414.654 253.43V250.72H415.056V251.143H415.092C415.148 250.998 415.239 250.886 415.365 250.806C415.491 250.725 415.642 250.684 415.819 250.684C415.997 250.684 416.146 250.725 416.265 250.806C416.385 250.886 416.479 250.998 416.546 251.143H416.574C416.643 251.003 416.747 250.892 416.886 250.81C417.025 250.726 417.191 250.684 417.386 250.684C417.628 250.684 417.826 250.76 417.98 250.912C418.134 251.063 418.211 251.297 418.211 251.616V253.43H417.795V251.616C417.795 251.416 417.74 251.273 417.631 251.187C417.521 251.101 417.393 251.058 417.244 251.058C417.054 251.058 416.906 251.116 416.801 251.231C416.697 251.345 416.644 251.49 416.644 251.665V253.43H416.221V251.574C416.221 251.42 416.171 251.295 416.071 251.201C415.971 251.106 415.842 251.058 415.685 251.058C415.576 251.058 415.475 251.087 415.381 251.145C415.288 251.203 415.213 251.283 415.155 251.385C415.099 251.486 415.07 251.603 415.07 251.736V253.43H414.654Z" fill="#453CB6"/>
<path d="M392.2 258.265V256.083H392.464V258.031H393.478V258.265H392.2ZM394.518 258.299C394.37 258.299 394.24 258.264 394.129 258.194C394.018 258.123 393.931 258.025 393.869 257.898C393.807 257.772 393.776 257.624 393.776 257.455C393.776 257.285 393.807 257.136 393.869 257.009C393.931 256.882 394.018 256.783 394.129 256.713C394.24 256.642 394.37 256.607 394.518 256.607C394.665 256.607 394.795 256.642 394.906 256.713C395.017 256.783 395.104 256.882 395.165 257.009C395.228 257.136 395.259 257.285 395.259 257.455C395.259 257.624 395.228 257.772 395.165 257.898C395.104 258.025 395.017 258.123 394.906 258.194C394.795 258.264 394.665 258.299 394.518 258.299ZM394.518 258.073C394.63 258.073 394.722 258.044 394.795 257.987C394.867 257.929 394.921 257.854 394.956 257.76C394.99 257.666 395.008 257.565 395.008 257.455C395.008 257.346 394.99 257.244 394.956 257.149C394.921 257.055 394.867 256.979 394.795 256.92C394.722 256.862 394.63 256.833 394.518 256.833C394.406 256.833 394.313 256.862 394.241 256.92C394.168 256.979 394.115 257.055 394.08 257.149C394.045 257.244 394.028 257.346 394.028 257.455C394.028 257.565 394.045 257.666 394.08 257.76C394.115 257.854 394.168 257.929 394.241 257.987C394.313 258.044 394.406 258.073 394.518 258.073ZM395.643 258.265V256.629H395.886V256.876H395.903C395.933 256.795 395.987 256.729 396.065 256.679C396.143 256.628 396.231 256.603 396.329 256.603C396.348 256.603 396.371 256.603 396.398 256.604C396.426 256.605 396.447 256.606 396.461 256.607V256.863C396.453 256.861 396.433 256.858 396.403 256.853C396.373 256.848 396.341 256.846 396.308 256.846C396.228 256.846 396.157 256.863 396.095 256.896C396.033 256.929 395.984 256.974 395.948 257.032C395.912 257.09 395.894 257.156 395.894 257.229V258.265H395.643ZM397.395 258.299C397.238 258.299 397.102 258.264 396.987 258.195C396.874 258.124 396.786 258.026 396.724 257.901C396.663 257.774 396.633 257.627 396.633 257.459C396.633 257.292 396.663 257.144 396.724 257.016C396.786 256.888 396.872 256.788 396.982 256.716C397.093 256.643 397.222 256.607 397.37 256.607C397.455 256.607 397.539 256.621 397.622 256.65C397.705 256.678 397.781 256.724 397.849 256.788C397.917 256.852 397.972 256.935 398.012 257.04C398.053 257.144 398.073 257.273 398.073 257.425V257.532H396.812V257.315H397.817C397.817 257.222 397.799 257.14 397.762 257.067C397.726 256.995 397.674 256.938 397.606 256.896C397.54 256.854 397.461 256.833 397.37 256.833C397.27 256.833 397.183 256.858 397.11 256.908C397.038 256.957 396.982 257.021 396.943 257.099C396.904 257.178 396.884 257.263 396.884 257.353V257.498C396.884 257.621 396.905 257.726 396.948 257.812C396.991 257.897 397.051 257.962 397.128 258.007C397.205 258.051 397.294 258.073 397.395 258.073C397.462 258.073 397.521 258.064 397.574 258.045C397.628 258.026 397.675 257.998 397.714 257.96C397.753 257.922 397.783 257.874 397.805 257.817L398.047 257.886C398.022 257.968 397.979 258.04 397.919 258.103C397.858 258.165 397.784 258.213 397.695 258.248C397.606 258.282 397.506 258.299 397.395 258.299ZM398.455 258.265V256.629H398.698V256.884H398.72C398.754 256.797 398.809 256.729 398.885 256.681C398.961 256.632 399.052 256.607 399.159 256.607C399.267 256.607 399.356 256.632 399.428 256.681C399.501 256.729 399.557 256.797 399.598 256.884H399.615C399.656 256.8 399.719 256.733 399.803 256.683C399.887 256.632 399.987 256.607 400.105 256.607C400.251 256.607 400.371 256.653 400.464 256.745C400.557 256.836 400.603 256.977 400.603 257.17V258.265H400.352V257.17C400.352 257.049 400.319 256.963 400.253 256.911C400.187 256.859 400.109 256.833 400.019 256.833C399.904 256.833 399.815 256.868 399.752 256.937C399.689 257.006 399.657 257.094 399.657 257.2V258.265H399.402V257.144C399.402 257.051 399.371 256.976 399.311 256.919C399.251 256.862 399.173 256.833 399.078 256.833C399.012 256.833 398.951 256.85 398.894 256.885C398.838 256.92 398.793 256.968 398.758 257.03C398.724 257.091 398.707 257.162 398.707 257.242V258.265H398.455ZM402.205 256.083V258.265H401.941V256.083H402.205ZM402.701 258.879V256.629H402.944V256.888H402.973C402.992 256.86 403.017 256.824 403.05 256.78C403.083 256.735 403.131 256.695 403.193 256.66C403.255 256.625 403.34 256.607 403.446 256.607C403.584 256.607 403.706 256.642 403.811 256.711C403.916 256.779 403.998 256.877 404.057 257.004C404.116 257.13 404.145 257.279 404.145 257.451C404.145 257.624 404.116 257.774 404.057 257.902C403.998 258.028 403.916 258.126 403.812 258.196C403.707 258.265 403.587 258.299 403.451 258.299C403.345 258.299 403.261 258.282 403.198 258.247C403.135 258.211 403.086 258.171 403.052 258.126C403.018 258.081 402.992 258.043 402.973 258.013H402.952V258.879H402.701ZM402.948 257.447C402.948 257.57 402.966 257.679 403.002 257.774C403.038 257.868 403.091 257.941 403.161 257.994C403.23 258.047 403.316 258.073 403.417 258.073C403.522 258.073 403.609 258.045 403.68 257.99C403.751 257.934 403.804 257.859 403.839 257.764C403.876 257.669 403.894 257.563 403.894 257.447C403.894 257.332 403.876 257.228 403.841 257.136C403.806 257.043 403.753 256.969 403.682 256.915C403.611 256.86 403.523 256.833 403.417 256.833C403.314 256.833 403.228 256.859 403.159 256.911C403.089 256.962 403.037 257.034 403.001 257.126C402.966 257.218 402.948 257.325 402.948 257.447ZM405.688 256.995L405.462 257.059C405.448 257.021 405.427 256.985 405.399 256.949C405.372 256.913 405.335 256.883 405.288 256.86C405.241 256.836 405.181 256.825 405.108 256.825C405.008 256.825 404.925 256.848 404.858 256.894C404.792 256.939 404.759 256.997 404.759 257.067C404.759 257.13 404.782 257.179 404.827 257.216C404.872 257.252 404.944 257.282 405.04 257.306L405.283 257.366C405.429 257.401 405.538 257.456 405.61 257.529C405.682 257.601 405.718 257.695 405.718 257.809C405.718 257.903 405.691 257.986 405.637 258.06C405.583 258.134 405.509 258.192 405.413 258.235C405.317 258.278 405.206 258.299 405.078 258.299C404.912 258.299 404.773 258.263 404.664 258.19C404.555 258.118 404.485 258.012 404.456 257.873L404.695 257.813C404.718 257.901 404.761 257.967 404.824 258.011C404.888 258.055 404.971 258.077 405.074 258.077C405.191 258.077 405.284 258.053 405.353 258.003C405.423 257.952 405.458 257.892 405.458 257.822C405.458 257.765 405.438 257.717 405.398 257.679C405.358 257.64 405.297 257.611 405.215 257.592L404.942 257.528C404.792 257.492 404.682 257.437 404.612 257.363C404.542 257.287 404.507 257.193 404.507 257.08C404.507 256.988 404.533 256.906 404.585 256.835C404.638 256.764 404.709 256.708 404.799 256.668C404.89 256.627 404.993 256.607 405.108 256.607C405.27 256.607 405.397 256.643 405.49 256.714C405.583 256.785 405.649 256.879 405.688 256.995ZM407.127 257.596V256.629H407.379V258.265H407.127V257.988H407.11C407.072 258.071 407.012 258.142 406.931 258.2C406.85 258.257 406.748 258.286 406.625 258.286C406.522 258.286 406.431 258.264 406.352 258.219C406.272 258.174 406.21 258.105 406.164 258.015C406.119 257.923 406.096 257.808 406.096 257.668V256.629H406.348V257.651C406.348 257.771 406.381 257.866 406.448 257.937C406.515 258.008 406.601 258.043 406.705 258.043C406.768 258.043 406.832 258.027 406.896 257.995C406.962 257.963 407.016 257.914 407.06 257.848C407.105 257.782 407.127 257.698 407.127 257.596ZM407.839 258.265V256.629H408.082V256.884H408.103C408.138 256.797 408.193 256.729 408.269 256.681C408.345 256.632 408.436 256.607 408.542 256.607C408.65 256.607 408.74 256.632 408.812 256.681C408.884 256.729 408.941 256.797 408.981 256.884H408.998C409.04 256.8 409.103 256.733 409.187 256.683C409.271 256.632 409.371 256.607 409.488 256.607C409.635 256.607 409.754 256.653 409.847 256.745C409.94 256.836 409.987 256.977 409.987 257.17V258.265H409.736V257.17C409.736 257.049 409.703 256.963 409.637 256.911C409.57 256.859 409.493 256.833 409.403 256.833C409.288 256.833 409.199 256.868 409.136 256.937C409.073 257.006 409.041 257.094 409.041 257.2V258.265H408.785V257.144C408.785 257.051 408.755 256.976 408.695 256.919C408.634 256.862 408.557 256.833 408.461 256.833C408.396 256.833 408.335 256.85 408.278 256.885C408.222 256.92 408.177 256.968 408.142 257.03C408.108 257.091 408.091 257.162 408.091 257.242V258.265H407.839ZM411.998 258.265H411.325V256.083H412.028C412.239 256.083 412.42 256.127 412.571 256.214C412.722 256.301 412.837 256.425 412.917 256.588C412.997 256.75 413.038 256.944 413.038 257.17C413.038 257.397 412.997 257.593 412.916 257.757C412.835 257.92 412.717 258.046 412.562 258.134C412.408 258.221 412.219 258.265 411.998 258.265ZM411.589 258.031H411.981C412.161 258.031 412.311 257.996 412.429 257.926C412.548 257.857 412.636 257.757 412.695 257.629C412.753 257.5 412.782 257.347 412.782 257.17C412.782 256.994 412.753 256.842 412.696 256.715C412.638 256.587 412.552 256.489 412.438 256.421C412.323 256.352 412.181 256.317 412.011 256.317H411.589V258.031ZM414.111 258.299C413.964 258.299 413.834 258.264 413.723 258.194C413.612 258.123 413.525 258.025 413.463 257.898C413.401 257.772 413.37 257.624 413.37 257.455C413.37 257.285 413.401 257.136 413.463 257.009C413.525 256.882 413.612 256.783 413.723 256.713C413.834 256.642 413.964 256.607 414.111 256.607C414.259 256.607 414.388 256.642 414.499 256.713C414.611 256.783 414.697 256.882 414.759 257.009C414.822 257.136 414.853 257.285 414.853 257.455C414.853 257.624 414.822 257.772 414.759 257.898C414.697 258.025 414.611 258.123 414.499 258.194C414.388 258.264 414.259 258.299 414.111 258.299ZM414.111 258.073C414.224 258.073 414.316 258.044 414.388 257.987C414.461 257.929 414.515 257.854 414.549 257.76C414.584 257.666 414.602 257.565 414.602 257.455C414.602 257.346 414.584 257.244 414.549 257.149C414.515 257.055 414.461 256.979 414.388 256.92C414.316 256.862 414.224 256.833 414.111 256.833C413.999 256.833 413.907 256.862 413.834 256.92C413.762 256.979 413.708 257.055 413.674 257.149C413.639 257.244 413.621 257.346 413.621 257.455C413.621 257.565 413.639 257.666 413.674 257.76C413.708 257.854 413.762 257.929 413.834 257.987C413.907 258.044 413.999 258.073 414.111 258.073ZM415.488 256.083V258.265H415.237V256.083H415.488ZM416.613 258.299C416.466 258.299 416.336 258.264 416.225 258.194C416.114 258.123 416.027 258.025 415.965 257.898C415.903 257.772 415.872 257.624 415.872 257.455C415.872 257.285 415.903 257.136 415.965 257.009C416.027 256.882 416.114 256.783 416.225 256.713C416.336 256.642 416.466 256.607 416.613 256.607C416.761 256.607 416.89 256.642 417.001 256.713C417.113 256.783 417.199 256.882 417.261 257.009C417.324 257.136 417.355 257.285 417.355 257.455C417.355 257.624 417.324 257.772 417.261 257.898C417.199 258.025 417.113 258.123 417.001 258.194C416.89 258.264 416.761 258.299 416.613 258.299ZM416.613 258.073C416.726 258.073 416.818 258.044 416.89 257.987C416.963 257.929 417.016 257.854 417.051 257.76C417.086 257.666 417.103 257.565 417.103 257.455C417.103 257.346 417.086 257.244 417.051 257.149C417.016 257.055 416.963 256.979 416.89 256.92C416.818 256.862 416.726 256.833 416.613 256.833C416.501 256.833 416.409 256.862 416.336 256.92C416.264 256.979 416.21 257.055 416.176 257.149C416.141 257.244 416.123 257.346 416.123 257.455C416.123 257.565 416.141 257.666 416.176 257.76C416.21 257.854 416.264 257.929 416.336 257.987C416.409 258.044 416.501 258.073 416.613 258.073ZM417.739 258.265V256.629H417.982V256.876H417.999C418.028 256.795 418.082 256.729 418.161 256.679C418.239 256.628 418.327 256.603 418.425 256.603C418.443 256.603 418.466 256.603 418.494 256.604C418.522 256.605 418.543 256.606 418.557 256.607V256.863C418.548 256.861 418.529 256.858 418.498 256.853C418.468 256.848 418.437 256.846 418.403 256.846C418.324 256.846 418.253 256.863 418.19 256.896C418.129 256.929 418.08 256.974 418.043 257.032C418.008 257.09 417.99 257.156 417.99 257.229V258.265H417.739Z" fill="#453CB6"/>
<path d="M411.38 270.143C411.38 270.797 410.858 271.328 410.213 271.328C409.569 271.328 409.046 270.798 409.046 270.143C409.046 269.488 409.568 268.957 410.213 268.957C410.858 268.957 411.38 269.488 411.38 270.143Z" fill="white"/>
<path d="M415.067 270.143C415.067 270.797 414.545 271.328 413.9 271.328C413.256 271.328 412.733 270.798 412.733 270.143C412.733 269.488 413.255 268.957 413.9 268.957C414.545 268.957 415.067 269.488 415.067 270.143Z" fill="white"/>
<path d="M418.755 270.143C418.755 270.797 418.233 271.328 417.588 271.328C416.944 271.328 416.421 270.798 416.421 270.143C416.421 269.488 416.943 268.957 417.588 268.957C418.233 268.957 418.755 269.488 418.755 270.143Z" fill="white"/>
<path d="M298.226 282.104C298.226 282.104 306.169 281.073 310.544 288.693C310.544 288.693 314.752 288.142 316.169 291.444C316.169 291.444 323.836 290.09 327.669 294.492H298.226V282.104Z" fill="white"/>
<path d="M330.892 283.57C334.725 279.168 342.392 280.522 342.392 280.522C343.809 277.22 348.017 277.771 348.017 277.771C351.647 270.833 358.897 271.532 358.897 271.532C358.897 271.532 365.397 271.512 367.335 279.541C367.335 279.541 374.46 277.946 375.668 283.571L330.892 283.57Z" fill="white"/>
<path d="M239.27 229.811L233.488 234.955L225.382 226.723L231.826 222.539L239.27 229.811Z" fill="#FFA9A8"/>
<path d="M227.118 225.595L239.27 229.811L233.488 234.955L227.118 225.595Z" fill="#F28C8C"/>
<path d="M231.826 222.539C231.826 222.539 250.568 201.511 252.01 203.635C253.452 205.759 245.246 217.768 245.412 219.157C245.578 220.546 248.07 216.951 249.678 217.033C251.286 217.114 248.163 224.257 239.271 229.81L231.826 222.539Z" fill="#FFA9A8"/>
<path d="M225.755 223.761L235.95 237.484L166.531 301.165L153.586 257.375L225.755 223.761Z" fill="#A37FEA"/>
<path d="M159.833 203.484L168.909 232.874C169.94 236.213 172.985 238.484 176.429 238.484C180.921 238.484 184.505 234.674 184.302 230.115L183.729 217.273L159.833 203.484Z" fill="#F28C8C"/>
<path d="M222.376 227.677L231.126 237.962" stroke="#C7B1FC" stroke-width="2" stroke-miterlimit="10"/>
<path d="M159.833 203.484C159.833 203.484 153.051 201.775 153.91 194.624C154.769 187.471 160.412 188.409 162.28 192.291C163.076 193.944 163.458 195.629 163.636 197.02L164.975 196.873C164.975 196.873 168.22 184.706 172.79 181.774C177.539 178.727 184.821 182.473 188.146 182.67C190.426 182.806 196.032 180.869 197.389 181.463C201.046 183.064 200.774 212.678 190.645 220.183C180.517 227.685 163.737 214.983 159.833 203.484Z" fill="#FFA9A8"/>
<path d="M156.215 171.645C134.15 177.922 151.904 210.473 153.002 212.826C154.099 215.18 161.398 227.353 171.358 221.932C177.828 218.41 179.498 210.979 181.982 203.233C175.26 204.131 175.171 194.878 179.149 192.77C183.482 190.475 184.294 194.038 184.31 194.061C192.066 188.981 197.39 181.459 197.39 181.459C197.39 181.459 199.536 184.384 199.536 193.832C199.536 193.832 208.515 180.43 203.797 168.999C203.797 168.999 196.109 152.743 175.427 156.299C167.933 157.589 158.233 159.575 156.215 171.645Z" fill="#240966"/>
<path d="M193.354 197.178C193.843 197.178 194.239 196.775 194.239 196.279C194.239 195.864 193.957 195.53 193.582 195.426C193.839 195.144 194.145 194.977 194.475 194.977C195.377 194.977 196.108 196.2 196.108 197.709C196.108 199.218 195.377 200.441 194.475 200.441C193.573 200.441 192.842 199.218 192.842 197.709C192.842 197.474 192.865 197.25 192.899 197.031C193.034 197.116 193.184 197.178 193.354 197.178Z" fill="#240966"/>
<path d="M197.139 193.372L191.757 192.943L191.811 191.652L197.193 192.081L197.139 193.372Z" fill="#240966"/>
<path d="M199.306 197.318C199.306 197.318 202.315 204.709 202.065 205.662C201.815 206.615 197.193 207.864 197.193 207.864L199.306 197.318Z" fill="#FFA9A8"/>
<path d="M191.169 210.53C189.482 209.514 190.862 213.983 194.671 215.273C195.336 214.059 195.924 212.723 196.442 211.305C196.424 211.306 192.852 211.543 191.169 210.53Z" fill="white"/>
<path d="M188.158 188.104C188.158 188.104 188.139 188.108 188.105 188.116C188.125 188.118 188.146 188.121 188.166 188.123L188.158 188.104Z" fill="#2C4784"/>
<path d="M235.923 504.329H191.131L179.086 376.502H232.955L235.923 504.329Z" fill="#453CB6"/>
<path d="M163.137 439.659H191.32C200.674 439.659 208.258 431.954 208.258 422.45V376.502H163.137V439.659Z" fill="#453CB6"/>
<path d="M128.861 504.329H173.653L185.697 376.502H131.829L128.861 504.329Z" fill="#453CB6"/>
<path d="M135.71 386.595H225.876" stroke="#C7B1FC" stroke-width="2" stroke-miterlimit="10"/>
<path d="M263.142 229.085L261.841 235.809L275.105 236.093L275.627 231.424L263.142 229.085Z" fill="#FFA9A8"/>
<path d="M275.627 231.424L262.482 232.494L275.195 235.285L275.627 231.424Z" fill="#F28C8C"/>
<path d="M283.265 195.113L266.835 191.063L259.354 222.389L275.784 226.44L283.265 195.113Z" fill="#240966"/>
<path d="M279.402 195.887L267.41 192.931L260.714 220.968L272.706 223.924L279.402 195.887Z" fill="white"/>
<path d="M259.343 231.805C259.343 231.805 248.254 263.373 246.876 264.675C245.498 265.976 216.356 239.563 216.356 239.563L202.883 271.94C202.883 271.94 246.719 305.403 258.513 301.335C264.487 299.275 278.877 236.094 278.877 236.094L259.343 231.805Z" fill="#C7B1FC"/>
<path d="M259.314 236.057L275.981 239.867" stroke="#A37FEA" stroke-width="2" stroke-miterlimit="10"/>
<path d="M209.005 276.45C217.226 282.37 232.165 292.642 243.997 298.073L214.876 264.505L209.005 276.45Z" fill="#A37FEA"/>
<path d="M274.564 208.117C274.564 208.117 280.1 207.904 281.448 210.741C285.198 218.634 277.714 225.198 275.584 231.805L272.069 230.757L276.251 214.594C276.251 214.594 271.751 213.768 270.876 211.609C270.001 209.45 271.509 207.813 274.564 208.117Z" fill="#FFA9A8"/>
<path d="M273.5 225.229L263.142 224.063V229.085C263.142 229.085 271.127 232.057 271.939 232.123C272.752 232.189 272.939 231.805 272.939 231.805C272.939 231.805 274.439 230.342 275.127 229.39C275.815 228.438 273.5 225.229 273.5 225.229Z" fill="#FFA9A8"/>
<path d="M264.268 201.783C264.268 201.783 261.492 201.206 260.705 201.783C259.918 202.36 259.251 204.9 259.626 205.535C259.626 205.535 257.043 208.88 258.168 211.42C258.168 211.42 255.585 214.976 256.418 216.838C257.251 218.701 260.095 219.254 260.095 219.254L264.268 201.783Z" fill="#FFA9A8"/>
<path d="M140.751 395.918V419.794L155.501 425.89L165.501 420.175L166.251 396.553" stroke="#C7B1FC" stroke-width="2" stroke-miterlimit="10"/>
<path d="M192.418 395.918V419.794L207.168 425.89L217.168 420.175L217.918 396.553" stroke="#C7B1FC" stroke-width="2" stroke-miterlimit="10"/>
<path d="M216.356 239.563L182.191 230.009H167.57L157.441 233.948C144.819 238.856 136.305 250.954 135.816 264.676L131.83 376.502H232.956L216.356 239.563Z" fill="#C7B1FC"/>
<path d="M161.315 227.677H188.165V232.748L161.315 233.09V227.677Z" fill="#A37FEA"/>
<path d="M134.931 205.55H60.1549C58.7399 205.55 57.5939 206.715 57.5939 208.152V229.76C57.5939 231.196 58.7409 232.362 60.1549 232.362H95.4689L105.969 239.933L103.719 232.362H134.931C136.345 232.362 137.492 231.196 137.492 229.76V208.152C137.492 206.715 136.345 205.55 134.931 205.55Z" fill="#453CB6"/>
<path d="M310.12 166.646H346.143C350.278 166.646 353.632 170.316 353.632 174.841V195.447C353.632 199.972 350.278 203.641 346.143 203.641H323.719L314.698 210.646L316.631 203.641H310.121C305.985 203.641 302.632 199.972 302.632 195.447V174.841C302.631 170.314 305.983 166.646 310.12 166.646Z" fill="#453CB6"/>
<path d="M338.414 179.358C338.402 176.531 336.637 174.703 333.835 174.677C329.959 174.638 326.081 174.635 322.205 174.677C319.463 174.705 317.687 176.521 317.645 179.258C317.618 181.192 317.64 183.129 317.64 185.063C317.64 186.956 317.628 188.852 317.642 190.745C317.667 193.634 319.429 195.482 322.289 195.511C326.124 195.552 329.961 195.554 333.796 195.511C336.6 195.479 338.397 193.634 338.411 190.842C338.433 187.015 338.431 183.186 338.414 179.358ZM336.56 190.877C336.54 192.663 335.578 193.652 333.789 193.664C329.954 193.688 326.12 193.688 322.285 193.664C320.488 193.655 319.516 192.668 319.507 190.889C319.49 187.02 319.49 183.151 319.507 179.282C319.514 177.51 320.505 176.492 322.275 176.48C326.11 176.454 329.945 176.454 333.78 176.48C335.554 176.492 336.54 177.505 336.56 179.273C336.582 181.207 336.565 183.141 336.565 185.076C336.565 187.008 336.582 188.942 336.56 190.877Z" fill="white"/>
<path d="M328.042 179.643C325.084 179.636 322.658 182.038 322.629 185.01C322.6 188.016 324.927 190.44 327.901 190.498C330.948 190.556 333.406 188.183 333.435 185.151C333.467 182.116 331.055 179.651 328.042 179.643ZM327.974 188.685C326.042 188.646 324.435 187.03 324.416 185.112C324.396 183.134 326.028 181.507 328.032 181.507C330.032 181.507 331.669 183.134 331.652 185.109C331.634 187.071 329.935 188.724 327.974 188.685Z" fill="white"/>
<path d="M335.084 179.516C335.025 180.277 334.538 180.674 333.789 180.638C332.968 180.599 332.548 180.095 332.609 179.285C332.664 178.526 333.159 178.175 333.918 178.131C334.688 178.262 335.144 178.701 335.084 179.516Z" fill="white"/>
<path d="M509.935 301.466H392.323C389.684 301.466 387.546 299.293 387.546 296.612V140.11C387.546 137.43 389.685 135.257 392.323 135.257H509.935C512.573 135.257 514.712 137.43 514.712 140.11V296.613C514.713 299.293 512.574 301.466 509.935 301.466Z" fill="#F3F3F9"/>
<path d="M447.093 277.54C447.093 278.414 446.396 279.122 445.536 279.122C444.676 279.122 443.979 278.414 443.979 277.54C443.979 276.666 444.676 275.958 445.536 275.958C446.396 275.958 447.093 276.666 447.093 277.54Z" fill="#453CB6"/>
<path d="M399.187 275.931C399.506 275.931 399.822 276.024 400.101 276.201C401 276.769 401.306 278.038 400.784 279.028C400.318 279.911 398.204 281.549 397.567 282.031C397.538 282.052 397.508 282.057 397.489 282.057C397.469 282.057 397.44 282.052 397.411 282.031C396.774 281.549 394.659 279.911 394.194 279.028C393.672 278.037 393.978 276.769 394.877 276.201C395.156 276.024 395.472 275.931 395.791 275.931C396.352 275.931 396.877 276.207 397.231 276.689L397.49 277.041L397.749 276.689C398.101 276.207 398.626 275.931 399.187 275.931ZM399.187 275.604C398.541 275.604 397.91 275.92 397.488 276.494C397.067 275.92 396.436 275.604 395.79 275.604C395.422 275.604 395.048 275.706 394.706 275.923C393.664 276.581 393.307 278.04 393.909 279.181C394.399 280.112 396.47 281.727 397.218 282.293C397.299 282.354 397.394 282.385 397.489 282.385C397.584 282.385 397.68 282.354 397.76 282.293C398.508 281.728 400.579 280.112 401.069 279.181C401.67 278.04 401.313 276.581 400.272 275.923C399.929 275.707 399.556 275.604 399.187 275.604Z" fill="#453CB6"/>
<path d="M410.771 275.787C411.071 275.787 411.376 275.828 411.676 275.91C412.795 276.212 413.664 277.117 413.944 278.269C414.141 279.077 414.059 279.886 413.707 280.607C413.627 280.769 413.608 280.953 413.653 281.124L413.961 282.292L412.855 281.99C412.796 281.974 412.735 281.966 412.673 281.966C412.553 281.966 412.433 281.997 412.325 282.056C411.841 282.324 411.318 282.459 410.772 282.459C410.504 282.459 410.231 282.425 409.961 282.358C408.961 282.11 407.862 281.017 407.608 280.017C407.344 278.976 407.552 277.905 408.179 277.081C408.805 276.259 409.75 275.787 410.771 275.787ZM410.771 275.435C408.456 275.435 406.649 277.645 407.274 280.106C407.563 281.244 408.757 282.422 409.879 282.7C410.182 282.776 410.481 282.811 410.771 282.811C411.393 282.811 411.977 282.649 412.489 282.366C412.546 282.335 412.609 282.317 412.673 282.317C412.704 282.317 412.735 282.322 412.766 282.33L414.294 282.746C414.302 282.748 414.31 282.749 414.319 282.749C414.378 282.749 414.425 282.692 414.408 282.63L413.987 281.032C413.963 280.942 413.975 280.846 414.016 280.762C414.383 280.012 414.507 279.117 414.279 278.182C413.971 276.917 413.002 275.903 411.765 275.568C411.427 275.479 411.094 275.436 410.771 275.435Z" fill="#453CB6"/>
<path d="M394.388 290.985V290.699L395.463 289.523C395.589 289.385 395.693 289.265 395.774 289.163C395.856 289.061 395.916 288.964 395.956 288.874C395.996 288.783 396.016 288.688 396.016 288.588C396.016 288.474 395.988 288.374 395.933 288.291C395.879 288.207 395.805 288.142 395.711 288.097C395.617 288.051 395.511 288.028 395.393 288.028C395.268 288.028 395.159 288.054 395.065 288.106C394.973 288.157 394.902 288.229 394.851 288.321C394.801 288.413 394.776 288.521 394.776 288.645H394.401C394.401 288.454 394.445 288.287 394.533 288.143C394.621 287.999 394.741 287.886 394.892 287.806C395.045 287.725 395.216 287.685 395.406 287.685C395.596 287.685 395.765 287.725 395.913 287.806C396.06 287.886 396.175 287.995 396.259 288.132C396.343 288.268 396.385 288.421 396.385 288.588C396.385 288.708 396.363 288.825 396.32 288.939C396.277 289.053 396.203 289.179 396.097 289.319C395.992 289.458 395.846 289.627 395.66 289.828L394.929 290.61V290.635H396.442V290.985H394.388ZM397.098 290.985V290.699L398.173 289.523C398.299 289.385 398.403 289.265 398.484 289.163C398.566 289.061 398.626 288.964 398.666 288.874C398.706 288.783 398.726 288.688 398.726 288.588C398.726 288.474 398.698 288.374 398.643 288.291C398.589 288.207 398.515 288.142 398.421 288.097C398.327 288.051 398.221 288.028 398.103 288.028C397.978 288.028 397.869 288.054 397.776 288.106C397.683 288.157 397.612 288.229 397.561 288.321C397.511 288.413 397.486 288.521 397.486 288.645H397.111C397.111 288.454 397.155 288.287 397.243 288.143C397.331 287.999 397.451 287.886 397.602 287.806C397.755 287.725 397.926 287.685 398.116 287.685C398.306 287.685 398.475 287.725 398.623 287.806C398.77 287.886 398.885 287.995 398.969 288.132C399.053 288.268 399.095 288.421 399.095 288.588C399.095 288.708 399.073 288.825 399.03 288.939C398.987 289.053 398.913 289.179 398.807 289.319C398.702 289.458 398.556 289.627 398.37 289.828L397.639 290.61V290.635H399.152V290.985H397.098ZM401.124 290.985V287.73H401.519V290.635H403.032V290.985H401.124ZM403.591 290.985V288.543H403.966V290.985H403.591ZM403.782 288.137C403.709 288.137 403.646 288.112 403.593 288.062C403.541 288.012 403.515 287.952 403.515 287.882C403.515 287.812 403.541 287.752 403.593 287.703C403.646 287.653 403.709 287.628 403.782 287.628C403.855 287.628 403.918 287.653 403.97 287.703C404.023 287.752 404.049 287.812 404.049 287.882C404.049 287.952 404.023 288.012 403.97 288.062C403.918 288.112 403.855 288.137 403.782 288.137ZM405.003 290.095L404.997 289.631H405.073L406.141 288.543H406.605L405.467 289.694H405.435L405.003 290.095ZM404.653 290.985V287.73H405.029V290.985H404.653ZM406.205 290.985L405.251 289.777L405.518 289.516L406.682 290.985H406.205ZM408.011 291.036C407.776 291.036 407.573 290.984 407.402 290.88C407.233 290.775 407.102 290.629 407.01 290.441C406.919 290.253 406.873 290.033 406.873 289.783C406.873 289.533 406.919 289.313 407.01 289.122C407.102 288.93 407.23 288.781 407.394 288.674C407.56 288.566 407.753 288.512 407.973 288.512C408.1 288.512 408.226 288.533 408.35 288.575C408.474 288.618 408.587 288.687 408.688 288.782C408.79 288.876 408.871 289.001 408.931 289.157C408.992 289.313 409.022 289.505 409.022 289.732V289.891H407.14V289.567H408.641C408.641 289.429 408.613 289.306 408.558 289.198C408.504 289.09 408.427 289.005 408.326 288.942C408.226 288.88 408.109 288.849 407.973 288.849C407.824 288.849 407.694 288.886 407.585 288.96C407.477 289.033 407.394 289.128 407.336 289.246C407.277 289.364 407.248 289.49 407.248 289.624V289.84C407.248 290.025 407.28 290.181 407.344 290.309C407.408 290.437 407.498 290.533 407.612 290.6C407.727 290.666 407.86 290.699 408.011 290.699C408.11 290.699 408.199 290.685 408.278 290.657C408.359 290.629 408.428 290.586 408.486 290.53C408.545 290.473 408.59 290.402 408.622 290.317L408.984 290.419C408.946 290.542 408.882 290.65 408.792 290.743C408.702 290.835 408.59 290.908 408.458 290.959C408.325 291.01 408.176 291.036 408.011 291.036ZM411.322 289.09L410.985 289.186C410.964 289.129 410.933 289.075 410.891 289.022C410.851 288.968 410.796 288.923 410.726 288.888C410.656 288.853 410.567 288.836 410.457 288.836C410.308 288.836 410.183 288.87 410.084 288.939C409.985 289.007 409.936 289.093 409.936 289.198C409.936 289.292 409.97 289.365 410.038 289.419C410.106 289.473 410.212 289.518 410.356 289.554L410.718 289.643C410.936 289.696 411.099 289.777 411.206 289.887C411.313 289.995 411.367 290.134 411.367 290.305C411.367 290.444 411.326 290.569 411.246 290.68C411.166 290.79 411.055 290.877 410.912 290.94C410.769 291.004 410.603 291.036 410.413 291.036C410.164 291.036 409.958 290.982 409.795 290.874C409.631 290.766 409.528 290.608 409.485 290.4L409.841 290.311C409.875 290.442 409.939 290.541 410.033 290.607C410.128 290.672 410.253 290.705 410.406 290.705C410.581 290.705 410.72 290.668 410.823 290.594C410.927 290.519 410.979 290.429 410.979 290.324C410.979 290.239 410.949 290.168 410.89 290.111C410.83 290.052 410.739 290.009 410.616 289.98L410.209 289.885C409.986 289.832 409.822 289.75 409.717 289.639C409.613 289.526 409.561 289.386 409.561 289.217C409.561 289.08 409.6 288.958 409.677 288.852C409.755 288.746 409.862 288.663 409.996 288.602C410.132 288.542 410.286 288.512 410.457 288.512C410.699 288.512 410.889 288.565 411.026 288.671C411.165 288.777 411.264 288.916 411.322 289.09Z" fill="#453CB6"/>
<path d="M423.881 282.441L427.791 275.76H420.29L423.011 278.427L423.881 282.441ZM423.435 278.43L426.865 276.517L424.059 281.312L423.435 278.43ZM426.605 276.181L423.235 278.061L421.316 276.181H426.605Z" fill="#453CB6"/>
<path d="M508.238 282.964C508.174 282.964 508.111 282.939 508.061 282.892L505.448 280.412L502.835 282.892C502.755 282.967 502.643 282.985 502.547 282.937C502.451 282.891 502.389 282.786 502.389 282.672V275.36C502.389 275.199 502.509 275.068 502.658 275.068H508.239C508.387 275.068 508.508 275.198 508.508 275.36V282.672C508.508 282.787 508.446 282.891 508.35 282.937C508.314 282.956 508.276 282.964 508.238 282.964ZM505.448 279.901C505.511 279.901 505.574 279.926 505.625 279.974L507.969 282.03V275.653H502.926V282.03L505.27 279.974C505.321 279.926 505.384 279.901 505.448 279.901Z" fill="#453CB6"/>
<path d="M514.713 155.874H387.546V271.661H514.713V155.874Z" fill="#DDD4F9"/>
<path d="M387.546 271.662C387.546 271.662 390.447 246.979 424.04 241.391C457.633 235.803 451.382 217.895 438.132 213.768C424.882 209.641 415.913 188.102 440.632 183.225C474.965 176.451 496.959 202.993 502.054 219.801C512.423 254.007 514.712 230.977 514.712 230.977V271.662H387.546Z" fill="white"/>
<path d="M452.686 277.54C452.686 278.414 451.989 279.122 451.129 279.122C450.269 279.122 449.572 278.414 449.572 277.54C449.572 276.666 450.269 275.958 451.129 275.958C451.989 275.958 452.686 276.666 452.686 277.54Z" fill="#DEDCEF"/>
<path d="M458.28 277.54C458.28 278.414 457.583 279.122 456.723 279.122C455.863 279.122 455.166 278.414 455.166 277.54C455.166 276.666 455.863 275.958 456.723 275.958C457.583 275.958 458.28 276.666 458.28 277.54Z" fill="#DEDCEF"/>
<path d="M418.409 158.153C420.05 151.132 415.778 144.089 408.868 142.422C401.957 140.755 395.025 145.095 393.384 152.116C391.743 159.137 396.015 166.18 402.926 167.848C409.836 169.515 416.768 165.174 418.409 158.153Z" fill="#453CB6"/>
<path d="M411.388 154.302C411.388 157.373 408.938 159.862 405.916 159.862C402.894 159.862 400.444 157.373 400.444 154.302C400.444 151.232 402.894 148.743 405.916 148.743C408.938 148.743 411.388 151.232 411.388 154.302Z" fill="white"/>
<path d="M415.846 161.436C414.723 160.002 412.755 159.645 411.176 160.531C409.617 161.405 407.824 161.904 405.916 161.904C404.008 161.904 402.216 161.405 400.656 160.531C399.077 159.645 397.109 160.002 395.986 161.436L395.235 162.395C397.544 165.885 401.465 168.182 405.915 168.182C410.365 168.182 414.286 165.885 416.596 162.395L415.846 161.436Z" fill="white"/>
<path d="M500.7 162.257C500.7 162.911 500.178 163.442 499.533 163.442C498.889 163.442 498.366 162.912 498.366 162.257C498.366 161.601 498.888 161.071 499.533 161.071C500.178 161.071 500.7 161.602 500.7 162.257Z" fill="white"/>
<path d="M504.388 162.257C504.388 162.911 503.866 163.442 503.221 163.442C502.577 163.442 502.054 162.912 502.054 162.257C502.054 161.601 502.576 161.071 503.221 161.071C503.865 161.071 504.388 161.602 504.388 162.257Z" fill="white"/>
<path d="M508.075 162.257C508.075 162.911 507.553 163.442 506.908 163.442C506.264 163.442 505.741 162.912 505.741 162.257C505.741 161.601 506.263 161.071 506.908 161.071C507.553 161.071 508.075 161.602 508.075 162.257Z" fill="white"/>
<path d="M543.923 308.837H447.093V378.568H543.923V308.837Z" fill="#DDD4F9"/>
<path d="M540.343 295.273H450.673C448.696 295.273 447.093 296.964 447.093 299.05V308.837H543.923V299.05C543.923 296.964 542.32 295.273 540.343 295.273Z" fill="#453CB6"/>
<path d="M457.698 303.337C458.394 303.337 458.959 302.763 458.959 302.055C458.959 301.348 458.394 300.774 457.698 300.774C457.001 300.774 456.437 301.348 456.437 302.055C456.437 302.763 457.001 303.337 457.698 303.337Z" fill="white"/>
<path d="M464.076 303.337C464.772 303.337 465.337 302.763 465.337 302.055C465.337 301.348 464.772 300.774 464.076 300.774C463.379 300.774 462.815 301.348 462.815 302.055C462.815 302.763 463.379 303.337 464.076 303.337Z" fill="white"/>
<path d="M470.454 303.337C471.15 303.337 471.715 302.763 471.715 302.055C471.715 301.348 471.15 300.774 470.454 300.774C469.757 300.774 469.193 301.348 469.193 302.055C469.193 302.763 469.757 303.337 470.454 303.337Z" fill="white"/>
<path d="M535.276 316.07H455.739V359.52H535.276V316.07Z" fill="white"/>
<path d="M492.044 337.795V331.095L497.754 334.445L503.465 337.795L497.754 341.145L492.044 344.494V337.795Z" fill="#453CB6"/>
<path d="M473.53 362.994H467.362V364.79H473.53V362.994Z" fill="white"/>
<path d="M479.698 366.422H467.362V368.218H479.698V366.422Z" fill="white"/>
<path d="M479.698 369.85H467.362V371.646H479.698V369.85Z" fill="white"/>
<path d="M464.255 362.994H455.739V371.646H464.255V362.994Z" fill="white"/>
<path d="M501.319 362.994H495.151V364.79H501.319V362.994Z" fill="white"/>
<path d="M507.487 366.422H495.151V368.218H507.487V366.422Z" fill="white"/>
<path d="M507.487 369.85H495.151V371.646H507.487V369.85Z" fill="white"/>
<path d="M492.044 362.994H483.528V371.646H492.044V362.994Z" fill="white"/>
<path d="M529.108 362.994H522.94V364.79H529.108V362.994Z" fill="white"/>
<path d="M535.276 366.422H522.94V368.218H535.276V366.422Z" fill="white"/>
<path d="M535.276 369.85H522.94V371.646H535.276V369.85Z" fill="white"/>
<path d="M519.833 362.994H511.317V371.646H519.833V362.994Z" fill="white"/>
<path d="M129.438 189.795H68.7979V223.423H129.438V189.795Z" fill="#A37FEA"/>
<path fill-rule="evenodd" clip-rule="evenodd" d="M68.7979 189.795H129.287L99.0428 209.866L68.7979 189.795Z" fill="#C7B1FC"/>
<path fill-rule="evenodd" clip-rule="evenodd" d="M129.437 223.423V192.197L99.0508 212.362L68.6188 192.176V223.423H129.437Z" fill="#C7B1FC"/>
<path d="M270.652 107.802C266.684 118.116 255.47 124.945 255.47 124.945C255.47 124.945 243.075 120.003 237.127 110.482C232.164 102.54 233.886 93.3903 240.213 90.9168C249.282 87.3672 253.3 103.312 253.3 103.312C253.3 103.312 254.081 86.9831 263.721 89.0369C270.441 90.4696 273.955 99.2009 270.652 107.802Z" fill="#FF4C4C"/>
</g>
<defs>
<clipPath id="clip0_198_4055">
<rect width="593" height="500" fill="white"/>
</clipPath>
</defs>
</svg>
